<mxfile host="app.diagrams.net" modified="2021-10-19T16:16:20.313Z" agent="5.0 (X11)" etag="inUWVK5sWLSiQ-A5_JV0" version="15.5.6" type="github">
  <diagram id="BA22Cw0Q-OJRntdxYYxC" name="Page-1">
    <mxGraphModel dx="868" dy="481" grid="1" gridSize="10" guides="1" tooltips="1" connect="1" arrows="1" fold="1" page="1" pageScale="1" pageWidth="827" pageHeight="1169" math="0" shadow="0">
      <root>
        <mxCell id="0" />
        <mxCell id="1" parent="0" />
        <mxCell id="lZ3_-Dr6xO2Tw88VxsLd-4" style="edgeStyle=orthogonalEdgeStyle;rounded=0;orthogonalLoop=1;jettySize=auto;html=1;exitX=0.5;exitY=1;exitDx=0;exitDy=0;entryX=0.5;entryY=0;entryDx=0;entryDy=0;" edge="1" parent="1" source="lZ3_-Dr6xO2Tw88VxsLd-1" target="lZ3_-Dr6xO2Tw88VxsLd-3">
          <mxGeometry relative="1" as="geometry" />
        </mxCell>
        <mxCell id="lZ3_-Dr6xO2Tw88VxsLd-1" value="Inicio" style="rounded=1;whiteSpace=wrap;html=1;" vertex="1" parent="1">
          <mxGeometry x="350" y="220" width="120" height="60" as="geometry" />
        </mxCell>
        <mxCell id="lZ3_-Dr6xO2Tw88VxsLd-2" value="Fin" style="rounded=1;whiteSpace=wrap;html=1;" vertex="1" parent="1">
          <mxGeometry x="350" y="380" width="120" height="60" as="geometry" />
        </mxCell>
        <mxCell id="lZ3_-Dr6xO2Tw88VxsLd-5" style="edgeStyle=orthogonalEdgeStyle;rounded=0;orthogonalLoop=1;jettySize=auto;html=1;exitX=0.5;exitY=1;exitDx=0;exitDy=0;entryX=0.5;entryY=0;entryDx=0;entryDy=0;" edge="1" parent="1" source="lZ3_-Dr6xO2Tw88VxsLd-3" target="lZ3_-Dr6xO2Tw88VxsLd-2">
          <mxGeometry relative="1" as="geometry" />
        </mxCell>
        <mxCell id="lZ3_-Dr6xO2Tw88VxsLd-3" value="Proceso" style="rounded=0;whiteSpace=wrap;html=1;" vertex="1" parent="1">
          <mxGeometry x="350" y="300" width="120" height="60" as="geometry" />
        </mxCell>
      </root>
    </mxGraphModel>
  </diagram>
</mxfile>
